{"title":"Mariah Carey Emotions [FLAC+CUE][Michi80]","uid":4155977,"size":323148598,"categoryP":"audio","categoryS":"flac","magnet":"?xt=urn:btih:5a3d05ca16bef3100ceac5a91d93e40a1ea8a137&amp;dn=Mariah+Carey+Emotions+%5BFLAC%2BCUE%5D%5BMichi80%5D&amp;tr=udp%3A%2F%2Ftracker.openbittorrent.com%3A80&amp;tr=udp%3A%2F%2Fopen.demonii.com%3A1337&amp;tr=udp%3A%2F%2Ftracker.coppersurfer.tk%3A6969&amp;tr=udp%3A%2F%2Fexodus.desync.com%3A6969","seeders":0,"leechers":1,"uploader":"michi80","files":5,"time":1209154458,"description":"Mariah Carey Emotions [FLAC+CUE][Michi80]\n\n\nExact Audio Copy V0.99 prebeta 3 from 28. July 2007\n\nEAC extraction logfile from 26. March 2008, 22:39\n\nMariah Carey / Emotions\n\nUsed drive  : _NEC    DV-5800C   Adapter: 1  ID: 1\n\nRead mode               : Secure\nUtilize accurate stream : Yes\nDefeat audio cache      : Yes\nMake use of C2 pointers : No\n\nRead offset correction                      : 12\nOverread into Lead-In and Lead-Out          : No\nFill up missing offset samples with silence : Yes\nDelete leading and trailing silent blocks   : No\nNull samples used in CRC calculations       : Yes\nUsed interface                              : Native Win32 interface for Win NT &amp; 2000\n\nUsed output format              : User Defined Encoder\nSelected bitrate                : 768 kBit/s\nQuality                         : High\nAdd ID3 tag                     : No\nCommand line compressor         : D:ProgrammiExact Audio CopyFLACFLAC.EXE\nAdditional command line options : -6 -V -T &quot;ARTIST=%a&quot; -T &quot;TITLE=%t&quot; -T &quot;ALBUM=%g&quot; -T &quot;DATE=%y&quot; -T &quot;TRACKNUMBER=%n&quot; -T &quot;GENRE=%m&quot; -T &quot;COMMENT=%e&quot; %s -o %d\n\n\nTOC of the extracted CD\n\n     Track |   Start  |  Length  | Start sector | End sector \n    ---------------------------------------------------------\n        1  |  0:00.00 |  4:08.57 |         0    |    18656   \n        2  |  4:08.57 |  4:26.55 |     18657    |    38661   \n        3  |  8:35.37 |  4:27.48 |     38662    |    58734   \n        4  | 13:03.10 |  5:07.70 |     58735    |    81829   \n        5  | 18:11.05 |  4:38.12 |     81830    |   102691   \n        6  | 22:49.17 |  5:05.43 |    102692    |   125609   \n        7  | 27:54.60 |  4:13.02 |    125610    |   144586   \n        8  | 32:07.62 |  4:37.50 |    144587    |   165411   \n        9  | 36:45.37 |  5:35.15 |    165412    |   190551   \n       10  | 42:20.52 |  4:41.48 |    190552    |   211674   \n\n\nRange status and errors\n\nSelected range\n\n     Filename C:\\FLACMariah Carey - EmotionsMariah Carey - Emotions.wav\n\n     Peak level 95.5 %\n     Range quality 99.9 %\n     Test CRC FEAFD354\n     Copy CRC FEAFD354\n     Copy OK\n\nNo errors occurred\n\n \nAccurateRip summary\n \nTrack  1  accurately ripped (confidence 30)  [0B62FE1E]\nTrack  2  accurately ripped (confidence 30)  [B3141B48]\nTrack  3  accurately ripped (confidence 30)  [AB0D8BFD]\nTrack  4  accurately ripped (confidence 30)  [BA09C19C]\nTrack  5  accurately ripped (confidence 29)  [B78EE5B7]\nTrack  6  accurately ripped (confidence 30)  [479B06EA]\nTrack  7  accurately ripped (confidence 30)  [DFE3CC4C]\nTrack  8  accurately ripped (confidence 30)  [14BFD930]\nTrack  9  accurately ripped (confidence 30)  [0F5EEF06]\nTrack 10  accurately ripped (confidence 30)  [032FCD35]\n \nAll tracks accurately ripped\n\nEnd of status report\n","torrent":{"xt":"urn:btih:5a3d05ca16bef3100ceac5a91d93e40a1ea8a137","amp;dn":"Mariah+Carey+Emotions+%5BFLAC%2BCUE%5D%5BMichi80%5D","amp;tr":["udp%3A%2F%2Ftracker.openbittorrent.com%3A80","udp%3A%2F%2Fopen.demonii.com%3A1337","udp%3A%2F%2Ftracker.coppersurfer.tk%3A6969","udp%3A%2F%2Fexodus.desync.com%3A6969"],"infoHash":"5a3d05ca16bef3100ceac5a91d93e40a1ea8a137","infoHashBuffer":{"type":"Buffer","data":[90,61,5,202,22,190,243,16,12,234,197,169,29,147,228,10,30,168,161,55]},"announce":[],"urlList":[]}}